<?xml version="1.0" encoding="utf-8"?>
<!-- Generator: Adobe Illustrator 27.5.0, SVG Export Plug-In . SVG Version: 6.00 Build 0)  -->
<svg version="1.1" xmlns="http://www.w3.org/2000/svg" xmlns:xlink="http://www.w3.org/1999/xlink" x="0px" y="0px"
	 viewBox="0 0 500 500" style="enable-background:new 0 0 500 500;" xml:space="preserve">
<g id="BACKGROUND">
	<g>
		<g>
			<rect style="fill:#FFFAF5;" width="500" height="500"/>
			<g>
				<path style="fill:#DBEBFC;" d="M61.402,428.926c-19.55-9.608-34.393-28.306-39.315-49.526
					c-4.923-21.22,0.172-44.543,13.495-61.777c11.563-14.958,29.166-26.015,35.096-43.967c5.901-17.866-1.543-37.064-3.075-55.817
					c-2.453-30.013,11.687-60.857,36.026-78.588c24.339-17.731,58.033-21.734,85.848-10.198c18.14,7.523,33.193,20.808,49.96,31.031
					c28.764,17.538,63.011,25.932,96.625,23.682c21.852-1.463,43.451-7.286,65.325-6.196c21.874,1.089,45.424,11.324,53.394,31.723
					c6.346,16.245,1.347,34.644-5.538,50.668c-6.885,16.024-15.754,31.728-17.31,49.099c-1.379,15.402,3.149,30.662,7.856,45.392
					c4.707,14.73,9.702,29.753,9.289,45.211c-0.342,12.79-5.19,26.144-14.649,34.366"/>
				<ellipse style="fill:#F4E6D9;" cx="250" cy="431.136" rx="226.726" ry="10.677"/>
			</g>
		</g>
		<g>
			<g>
				<path style="fill:#34264F;" d="M413.309,211.789h-3.012v-3.011c0-0.385-0.313-0.697-0.697-0.697
					c-0.385,0-0.697,0.313-0.697,0.697v3.011h-3.011c-0.385,0-0.697,0.313-0.697,0.697c0,0.385,0.313,0.697,0.697,0.697h3.011v3.012
					c0,0.385,0.313,0.697,0.697,0.697c0.385,0,0.697-0.313,0.697-0.697v-3.012h3.012c0.385,0,0.697-0.313,0.697-0.697
					C414.007,212.102,413.694,211.789,413.309,211.789z"/>
				<path style="fill:#34264F;" d="M307.568,80.924h-3.012v-3.011c0-0.385-0.313-0.697-0.697-0.697
					c-0.385,0-0.697,0.313-0.697,0.697v3.011h-3.011c-0.385,0-0.697,0.313-0.697,0.697c0,0.385,0.313,0.697,0.697,0.697h3.011v3.012
					c0,0.385,0.313,0.697,0.697,0.697c0.385,0,0.697-0.313,0.697-0.697v-3.012h3.012c0.385,0,0.697-0.313,0.697-0.697
					C308.265,81.236,307.952,80.924,307.568,80.924z"/>
				<path style="fill:#34264F;" d="M428.178,43.471h-3.012V40.46c0-0.385-0.313-0.697-0.697-0.697c-0.385,0-0.697,0.313-0.697,0.697
					v3.011h-3.011c-0.385,0-0.697,0.313-0.697,0.697c0,0.385,0.313,0.697,0.697,0.697h3.011v3.012c0,0.385,0.313,0.697,0.697,0.697
					c0.385,0,0.697-0.313,0.697-0.697v-3.012h3.012c0.385,0,0.697-0.313,0.697-0.697C428.876,43.783,428.563,43.471,428.178,43.471z
					"/>
				<path style="fill:#34264F;" d="M472.729,312.295h-3.012v-3.011c0-0.385-0.313-0.697-0.697-0.697s-0.697,0.313-0.697,0.697v3.011
					h-3.011c-0.385,0-0.697,0.313-0.697,0.697s0.313,0.697,0.697,0.697h3.011v3.012c0,0.385,0.313,0.697,0.697,0.697
					s0.697-0.313,0.697-0.697v-3.012h3.012c0.385,0,0.697-0.313,0.697-0.697S473.113,312.295,472.729,312.295z"/>
				<path style="fill:#34264F;" d="M118.34,37.248h-3.012v-3.011c0-0.385-0.313-0.697-0.697-0.697c-0.385,0-0.697,0.313-0.697,0.697
					v3.011h-3.011c-0.385,0-0.697,0.313-0.697,0.697c0,0.385,0.313,0.697,0.697,0.697h3.011v3.012c0,0.385,0.313,0.697,0.697,0.697
					c0.385,0,0.697-0.313,0.697-0.697v-3.012h3.012c0.385,0,0.697-0.313,0.697-0.697C119.037,37.56,118.724,37.248,118.34,37.248z"
					/>
				<path style="fill:#34264F;" d="M34.225,191.228h-3.012v-3.011c0-0.385-0.313-0.697-0.697-0.697
					c-0.385,0-0.697,0.313-0.697,0.697v3.011h-3.011c-0.385,0-0.697,0.313-0.697,0.697c0,0.385,0.313,0.697,0.697,0.697h3.011v3.012
					c0,0.385,0.313,0.697,0.697,0.697c0.385,0,0.697-0.313,0.697-0.697v-3.012h3.012c0.385,0,0.697-0.313,0.697-0.697
					C34.922,191.541,34.61,191.228,34.225,191.228z"/>
				<path style="fill:#34264F;" d="M73.288,335.148h-3.012v-3.011c0-0.385-0.313-0.697-0.697-0.697
					c-0.385,0-0.697,0.313-0.697,0.697v3.011h-3.011c-0.385,0-0.697,0.313-0.697,0.697c0,0.385,0.313,0.697,0.697,0.697h3.011v3.012
					c0,0.385,0.313,0.697,0.697,0.697c0.385,0,0.697-0.313,0.697-0.697v-3.012h3.012c0.385,0,0.697-0.313,0.697-0.697
					C73.985,335.46,73.673,335.148,73.288,335.148z"/>
			</g>
			<g>
				<path style="fill:#7FE2AC;" d="M194.32,80.836c-2.574,0-2.578,4,0,4C196.894,84.836,196.898,80.836,194.32,80.836z"/>
				<path style="fill:#7FE2AC;" d="M338.651,26.09c-2.574,0-2.578,4,0,4C341.225,30.09,341.23,26.09,338.651,26.09z"/>
				<path style="fill:#7FE2AC;" d="M449.14,131.601c-2.574,0-2.578,4,0,4C451.714,135.601,451.718,131.601,449.14,131.601z"/>
				<path style="fill:#7FE2AC;" d="M46.007,48.984c-2.574,0-2.578,4,0,4C48.581,52.984,48.585,48.984,46.007,48.984z"/>
				<path style="fill:#7FE2AC;" d="M129.62,174.403c-2.574,0-2.578,4,0,4C132.193,178.403,132.198,174.403,129.62,174.403z"/>
				<path style="fill:#7FE2AC;" d="M35.058,255.029c-2.574,0-2.578,4,0,4C37.632,259.03,37.636,255.029,35.058,255.029z"/>
				<path style="fill:#7FE2AC;" d="M38.044,374.476c-2.574,0-2.578,4,0,4C40.618,378.476,40.622,374.476,38.044,374.476z"/>
				<path style="fill:#7FE2AC;" d="M479.001,381.444c-2.574,0-2.578,4,0,4C481.575,385.444,481.579,381.444,479.001,381.444z"/>
				<path style="fill:#7FE2AC;" d="M427.241,256.025c-2.574,0-2.578,4,0,4C429.815,260.025,429.819,256.025,427.241,256.025z"/>
			</g>
			<g>
				<path style="fill:#FFA14D;" d="M377.14,106.721c-1.287,0-1.289,2,0,2C378.427,108.721,378.429,106.721,377.14,106.721z"/>
				<path style="fill:#FFA14D;" d="M244.946,27.09c-1.287,0-1.289,2,0,2C246.233,29.09,246.235,27.09,244.946,27.09z"/>
				<path style="fill:#FFA14D;" d="M134.681,96.767c-1.287,0-1.289,2,0,2C135.968,98.767,135.97,96.767,134.681,96.767z"/>
				<path style="fill:#FFA14D;" d="M81.841,234.131c-1.287,0-1.289,2,0,2C83.128,236.131,83.13,234.131,81.841,234.131z"/>
				<path style="fill:#FFA14D;" d="M20.127,314.758c-1.287,0-1.289,2,0,2C21.414,316.758,21.416,314.758,20.127,314.758z"/>
				<path style="fill:#FFA14D;" d="M357.564,199.292c-1.287,0-1.289,2,0,2C358.851,201.292,358.853,199.292,357.564,199.292z"/>
				<path style="fill:#FFA14D;" d="M476.015,250.057c-1.287,0-1.289,2,0,2C477.302,252.057,477.304,250.057,476.015,250.057z"/>
				<path style="fill:#FFA14D;" d="M408.329,327.698c-1.287,0-1.289,2,0,2C409.616,329.698,409.618,327.698,408.329,327.698z"/>
				<path style="fill:#FFA14D;" d="M30.081,124.638c-1.287,0-1.289,2,0,2C31.368,126.638,31.37,124.638,30.081,124.638z"/>
			</g>
		</g>
	</g>
</g>
<g id="OBJECTS">
	<g>
		<g>
			<g>
				<g>
					<rect x="312.513" y="234.592" style="fill:#E04C70;" width="78.325" height="196.246"/>
					<polygon style="fill:#CE4169;" points="312.513,234.592 390.838,285.251 390.838,234.592 					"/>
					<g>
						<rect x="324.113" y="273.019" style="fill:#F9A035;" width="19.465" height="2.905"/>
						<g>
							<path style="fill:#72BFED;" d="M341.738,273.019h-15.786V252.64c0-4.359,3.534-7.893,7.893-7.893l0,0
								c4.359,0,7.893,3.534,7.893,7.893V273.019z"/>
							<path style="fill:#58AFDB;" d="M333.846,244.747c-1.448,0-2.8,0.396-3.966,1.076l11.859,7.67v-0.854
								C341.738,248.281,338.205,244.747,333.846,244.747z"/>
							<path style="fill:#FFFFFF;" d="M333.845,244.309c-4.594,0-8.33,3.737-8.33,8.331v20.379h0.875v-19.941h7.017v19.941h0.875
								v-19.941h7.018v19.941h0.875V252.64C342.176,248.046,338.439,244.309,333.845,244.309z M326.413,252.202
								c0.22-3.761,3.234-6.775,6.995-6.995v6.995H326.413z M334.283,245.207c3.762,0.22,6.776,3.234,6.996,6.995h-6.996V245.207z"
								/>
							<path style="fill:#EDEDED;" d="M333.845,244.309c-1.604,0-3.098,0.464-4.371,1.252l0.829,0.536
								c0.933-0.507,1.984-0.825,3.104-0.891v2.899l0.875,0.566v-3.465c3.762,0.22,6.776,3.234,6.996,6.995h-1.537l1.354,0.876
								h0.206v0.133l0.876,0.566v-1.137C342.176,248.046,338.439,244.309,333.845,244.309z"/>
						</g>
					</g>
					<rect x="305.442" y="227.62" style="fill:#F9A035;" width="92.468" height="6.971"/>
					<g>
						<rect x="359.774" y="273.019" style="fill:#F9A035;" width="19.465" height="2.905"/>
						<g>
							<path style="fill:#72BFED;" d="M377.399,273.019h-15.786V252.64c0-4.359,3.534-7.893,7.893-7.893h0
								c4.359,0,7.893,3.534,7.893,7.893V273.019z"/>
							<path style="fill:#58AFDB;" d="M369.506,244.747L369.506,244.747c-4.359,0-7.893,3.534-7.893,7.893v13.709l10.313,6.67h5.473
								V252.64C377.399,248.281,373.865,244.747,369.506,244.747z"/>
							<path style="fill:#FFFFFF;" d="M369.506,244.309c-4.593,0-8.33,3.737-8.33,8.331v20.379h0.875v-19.941h7.017v19.941h0.876
								v-19.941h7.018v19.941h0.876V252.64C377.837,248.046,374.099,244.309,369.506,244.309z M362.073,252.202
								c0.22-3.761,3.234-6.775,6.995-6.995v6.995H362.073z M369.944,245.207c3.761,0.22,6.776,3.234,6.996,6.995h-6.996V245.207z"
								/>
							<path style="fill:#EDEDED;" d="M369.506,244.309c-4.593,0-8.33,3.737-8.33,8.331v13.425l0.875,0.566v-13.554h7.017v18.093
								l0.876,0.566v-18.659h7.018v19.941h0.876V252.64C377.837,248.046,374.099,244.309,369.506,244.309z M369.068,252.202h-6.995
								c0.22-3.761,3.234-6.775,6.995-6.995V252.202z M369.944,252.202v-6.995c3.761,0.22,6.776,3.234,6.996,6.995H369.944z"/>
						</g>
						<polygon style="fill:#E88A23;" points="376.417,275.924 379.239,275.924 379.239,273.019 371.926,273.019 						"/>
					</g>
					<g>
						<rect x="324.113" y="311.747" style="fill:#F9A035;" width="19.465" height="2.905"/>
						<g>
							<path style="fill:#72BFED;" d="M341.738,311.747h-15.786v-20.379c0-4.359,3.534-7.893,7.893-7.893l0,0
								c4.359,0,7.893,3.534,7.893,7.893V311.747z"/>
							<path style="fill:#FFFFFF;" d="M333.845,283.038c-4.594,0-8.33,3.737-8.33,8.331v20.379h0.875v-19.941h7.017v19.941h0.875
								v-19.941h7.018v19.941h0.875v-20.379C342.176,286.775,338.439,283.038,333.845,283.038z M326.413,290.931
								c0.22-3.761,3.234-6.775,6.995-6.995v6.995H326.413z M334.283,283.935c3.762,0.22,6.776,3.234,6.996,6.995h-6.996V283.935z"
								/>
						</g>
					</g>
					<g>
						<rect x="359.774" y="311.747" style="fill:#F9A035;" width="19.465" height="2.905"/>
						<g>
							<path style="fill:#72BFED;" d="M377.399,311.747h-15.786v-20.379c0-4.359,3.534-7.893,7.893-7.893h0
								c4.359,0,7.893,3.534,7.893,7.893V311.747z"/>
							<path style="fill:#FFFFFF;" d="M369.506,283.038c-4.593,0-8.33,3.737-8.33,8.331v20.379h0.875v-19.941h7.017v19.941h0.876
								v-19.941h7.018v19.941h0.876v-20.379C377.837,286.775,374.099,283.038,369.506,283.038z M362.073,290.931
								c0.22-3.761,3.234-6.775,6.995-6.995v6.995H362.073z M369.944,283.935c3.761,0.22,6.776,3.234,6.996,6.995h-6.996V283.935z"
								/>
						</g>
					</g>
					<g>
						<rect x="324.113" y="350.476" style="fill:#F9A035;" width="19.465" height="2.905"/>
						<g>
							<path style="fill:#72BFED;" d="M341.738,350.476h-15.786v-20.379c0-4.359,3.534-7.893,7.893-7.893l0,0
								c4.359,0,7.893,3.534,7.893,7.893V350.476z"/>
							<path style="fill:#FFFFFF;" d="M333.845,321.766c-4.594,0-8.33,3.737-8.33,8.331v20.379h0.875v-19.941h7.017v19.941h0.875
								v-19.941h7.018v19.941h0.875v-20.379C342.176,325.504,338.439,321.766,333.845,321.766z M326.413,329.659
								c0.22-3.761,3.234-6.775,6.995-6.995v6.995H326.413z M334.283,322.664c3.762,0.22,6.776,3.234,6.996,6.995h-6.996V322.664z"
								/>
						</g>
					</g>
					<g>
						<rect x="359.774" y="350.476" style="fill:#F9A035;" width="19.465" height="2.905"/>
						<g>
							<path style="fill:#72BFED;" d="M377.399,350.476h-15.786v-20.379c0-4.359,3.534-7.893,7.893-7.893h0
								c4.359,0,7.893,3.534,7.893,7.893V350.476z"/>
							<path style="fill:#FFFFFF;" d="M369.506,321.766c-4.593,0-8.33,3.737-8.33,8.331v20.379h0.875v-19.941h7.017v19.941h0.876
								v-19.941h7.018v19.941h0.876v-20.379C377.837,325.504,374.099,321.766,369.506,321.766z M362.073,329.659
								c0.22-3.761,3.234-6.775,6.995-6.995v6.995H362.073z M369.944,322.664c3.761,0.22,6.776,3.234,6.996,6.995h-6.996V322.664z"
								/>
						</g>
					</g>
					<g>
						<rect x="324.113" y="389.205" style="fill:#F9A035;" width="19.465" height="2.905"/>
						<g>
							<path style="fill:#72BFED;" d="M341.738,389.205h-15.786v-20.379c0-4.359,3.534-7.893,7.893-7.893l0,0
								c4.359,0,7.893,3.534,7.893,7.893V389.205z"/>
							<path style="fill:#FFFFFF;" d="M333.845,360.495c-4.594,0-8.33,3.737-8.33,8.331v20.379h0.875v-19.941h7.017v19.941h0.875
								v-19.941h7.018v19.941h0.875v-20.379C342.176,364.232,338.439,360.495,333.845,360.495z M326.413,368.388
								c0.22-3.761,3.234-6.775,6.995-6.995v6.995H326.413z M334.283,361.393c3.762,0.22,6.776,3.234,6.996,6.995h-6.996V361.393z"
								/>
						</g>
					</g>
					<g>
						<rect x="359.774" y="389.205" style="fill:#F9A035;" width="19.465" height="2.905"/>
						<g>
							<path style="fill:#72BFED;" d="M377.399,389.205h-15.786v-20.379c0-4.359,3.534-7.893,7.893-7.893h0
								c4.359,0,7.893,3.534,7.893,7.893V389.205z"/>
							<path style="fill:#FFFFFF;" d="M369.506,360.495c-4.593,0-8.33,3.737-8.33,8.331v20.379h0.875v-19.941h7.017v19.941h0.876
								v-19.941h7.018v19.941h0.876v-20.379C377.837,364.232,374.099,360.495,369.506,360.495z M362.073,368.388
								c0.22-3.761,3.234-6.775,6.995-6.995v6.995H362.073z M369.944,361.393c3.761,0.22,6.776,3.234,6.996,6.995h-6.996V361.393z"
								/>
						</g>
					</g>
					<g>
						<g>
							<path style="fill:#72BFED;" d="M360.38,430.838h-17.408v-22.473c0-4.807,3.897-8.704,8.704-8.704l0,0
								c4.807,0,8.704,3.897,8.704,8.704V430.838z"/>
							<path style="fill:#FFFFFF;" d="M351.676,399.223c-5.04,0-9.141,4.101-9.141,9.142v22.473h0.875v-22.035h7.828v22.035h0.875
								v-22.035h7.828v22.035h0.875v-22.473C360.817,403.324,356.716,399.223,351.676,399.223z M343.432,407.927
								c0.222-4.208,3.598-7.584,7.806-7.806v7.806H343.432z M352.113,400.121c4.208,0.222,7.584,3.598,7.806,7.806h-7.806V400.121z
								"/>
						</g>
					</g>
				</g>
				<g>
					<rect x="94.003" y="211.939" style="fill:#7FE2AC;" width="90.084" height="218.732"/>
					<polygon style="fill:#6FD199;" points="94.003,211.939 184.087,268.059 184.087,211.939 					"/>
					<g>
						<rect x="131.394" y="222.509" style="fill:#72BFED;" width="15.302" height="25.188"/>
						<rect x="128.518" y="247.697" style="fill:#3C3D63;" width="21.053" height="2.876"/>
						<polygon style="fill:#58AFDB;" points="131.394,235.232 146.696,244.765 146.696,222.509 131.394,222.509 						"/>
						<path style="fill:#FFFFFF;" d="M130.894,222.009v25.688h1v-3.876h6.651v3.876h1v-3.876h6.651v3.876h1v-25.688H130.894z
							 M146.196,226.385h-6.651v-3.376h6.651V226.385z M138.545,223.009v3.376h-6.651v-3.376H138.545z M131.894,242.821v-15.436
							h6.651v15.436H131.894z M139.545,242.821v-15.436h6.651v15.436H139.545z"/>
						<path style="fill:#EDEDED;" d="M130.894,234.921l1,0.623v-8.158h6.651v12.302l1,0.623v-12.925h6.651v15.436h-2.621l1.605,1
							h1.016v0.633l1,0.623v-23.067h-16.302V234.921z M139.545,223.009h6.651v3.376h-6.651V223.009z M131.894,223.009h6.651v3.376
							h-6.651V223.009z"/>
					</g>
					<g>
						<rect x="103.609" y="222.509" style="fill:#72BFED;" width="15.302" height="25.188"/>
						<rect x="100.734" y="247.697" style="fill:#3C3D63;" width="21.053" height="2.876"/>
						<polygon style="fill:#58AFDB;" points="118.912,227.456 118.912,222.509 110.97,222.509 						"/>
						<path style="fill:#FFFFFF;" d="M103.109,222.009v25.688h1v-3.876h6.651v3.876h1v-3.876h6.651v3.876h1v-25.688H103.109z
							 M118.412,226.385h-6.651v-3.376h6.651V226.385z M110.761,223.009v3.376h-6.651v-3.376H110.761z M104.109,242.821v-15.436
							h6.651v15.436H104.109z M111.761,242.821v-15.436h6.651v15.436H111.761z"/>
						<polygon style="fill:#EDEDED;" points="111.773,223.009 118.412,223.009 118.412,226.385 117.192,226.385 119.412,227.768 
							119.412,222.009 110.168,222.009 						"/>
					</g>
					<g>
						
							<rect x="159.178" y="222.509" transform="matrix(-1 -1.224647e-16 1.224647e-16 -1 333.6582 470.2062)" style="fill:#58AFDB;" width="15.302" height="25.188"/>
						
							<rect x="156.302" y="247.697" transform="matrix(-1 -1.224647e-16 1.224647e-16 -1 333.6582 498.2698)" style="fill:#303351;" width="21.053" height="2.876"/>
						<path style="fill:#EDEDED;" d="M158.678,222.009v25.688h1v-3.876h6.651v3.876h1v-3.876h6.651v3.876h1v-25.688H158.678z
							 M159.678,223.009h6.651v3.376h-6.651V223.009z M173.98,223.009v3.376h-6.651v-3.376H173.98z M167.329,242.821v-15.436h6.651
							v15.436H167.329z M159.678,242.821v-15.436h6.651v15.436H159.678z"/>
					</g>
					<g>
						<rect x="131.394" y="261.143" style="fill:#72BFED;" width="15.302" height="25.188"/>
						<rect x="128.518" y="286.331" style="fill:#3C3D63;" width="21.053" height="2.876"/>
						<path style="fill:#FFFFFF;" d="M130.894,260.643v25.688h1v-3.876h6.651v3.876h1v-3.876h6.651v3.876h1v-25.688H130.894z
							 M146.196,265.019h-6.651v-3.376h6.651V265.019z M138.545,261.643v3.376h-6.651v-3.376H138.545z M131.894,281.454v-15.435
							h6.651v15.435H131.894z M139.545,281.454v-15.435h6.651v15.435H139.545z"/>
					</g>
					<g>
						<rect x="103.609" y="261.143" style="fill:#72BFED;" width="15.302" height="25.188"/>
						<rect x="100.734" y="286.331" style="fill:#3C3D63;" width="21.053" height="2.876"/>
						<path style="fill:#FFFFFF;" d="M103.109,260.643v25.688h1v-3.876h6.651v3.876h1v-3.876h6.651v3.876h1v-25.688H103.109z
							 M118.412,265.019h-6.651v-3.376h6.651V265.019z M110.761,261.643v3.376h-6.651v-3.376H110.761z M104.109,281.454v-15.435
							h6.651v15.435H104.109z M111.761,281.454v-15.435h6.651v15.435H111.761z"/>
					</g>
					<g>
						
							<rect x="159.178" y="261.143" transform="matrix(-1 -1.224647e-16 1.224647e-16 -1 333.6582 547.4735)" style="fill:#72BFED;" width="15.302" height="25.188"/>
						
							<rect x="156.302" y="286.331" transform="matrix(-1 -1.224647e-16 1.224647e-16 -1 333.6582 575.537)" style="fill:#3C3D63;" width="21.053" height="2.876"/>
						<path style="fill:#FFFFFF;" d="M158.678,260.643v25.688h1v-3.876h6.651v3.876h1v-3.876h6.651v3.876h1v-25.688H158.678z
							 M159.678,261.643h6.651v3.376h-6.651V261.643z M173.98,261.643v3.376h-6.651v-3.376H173.98z M167.329,281.454v-15.435h6.651
							v15.435H167.329z M159.678,281.454v-15.435h6.651v15.435H159.678z"/>
						<polygon style="fill:#EDEDED;" points="173.788,261.643 173.98,261.643 173.98,261.763 174.98,262.385 174.98,260.643 
							172.183,260.643 						"/>
					</g>
					<polygon style="fill:#6FD199;" points="94.003,304.2 184.087,360.32 184.087,304.2 					"/>
					<g>
						<rect x="131.394" y="314.771" style="fill:#72BFED;" width="15.302" height="25.188"/>
						<rect x="128.518" y="339.958" style="fill:#3C3D63;" width="21.053" height="2.876"/>
						<polygon style="fill:#58AFDB;" points="131.394,327.494 146.696,337.027 146.696,314.771 131.394,314.771 						"/>
						<path style="fill:#FFFFFF;" d="M130.894,314.271v25.688h1v-3.876h6.651v3.876h1v-3.876h6.651v3.876h1v-25.688H130.894z
							 M146.196,318.647h-6.651v-3.376h6.651V318.647z M138.545,315.271v3.376h-6.651v-3.376H138.545z M131.894,335.082v-15.436
							h6.651v15.436H131.894z M139.545,335.082v-15.436h6.651v15.436H139.545z"/>
						<path style="fill:#EDEDED;" d="M130.894,327.182l1,0.623v-8.159h6.651v12.302l1,0.623v-12.925h6.651v15.436h-2.621l1.605,1
							h1.016v0.633l1,0.623v-23.067h-16.302V327.182z M139.545,315.271h6.651v3.376h-6.651V315.271z M131.894,315.271h6.651v3.376
							h-6.651V315.271z"/>
					</g>
					<g>
						<rect x="103.609" y="314.771" style="fill:#72BFED;" width="15.302" height="25.188"/>
						<rect x="100.734" y="339.958" style="fill:#3C3D63;" width="21.053" height="2.876"/>
						<polygon style="fill:#58AFDB;" points="118.912,319.718 118.912,314.771 110.97,314.771 						"/>
						<path style="fill:#FFFFFF;" d="M103.109,314.271v25.688h1v-3.876h6.651v3.876h1v-3.876h6.651v3.876h1v-25.688H103.109z
							 M118.412,318.647h-6.651v-3.376h6.651V318.647z M110.761,315.271v3.376h-6.651v-3.376H110.761z M104.109,335.082v-15.436
							h6.651v15.436H104.109z M111.761,335.082v-15.436h6.651v15.436H111.761z"/>
						<polygon style="fill:#EDEDED;" points="111.773,315.271 118.412,315.271 118.412,318.647 117.192,318.647 119.412,320.029 
							119.412,314.271 110.168,314.271 						"/>
					</g>
					<g>
						
							<rect x="159.178" y="314.771" transform="matrix(-1 -1.224647e-16 1.224647e-16 -1 333.6582 654.7289)" style="fill:#58AFDB;" width="15.302" height="25.188"/>
						
							<rect x="156.302" y="339.958" transform="matrix(-1 -1.224647e-16 1.224647e-16 -1 333.6582 682.7924)" style="fill:#303351;" width="21.053" height="2.876"/>
						<path style="fill:#EDEDED;" d="M158.678,314.271v25.688h1v-3.876h6.651v3.876h1v-3.876h6.651v3.876h1v-25.688H158.678z
							 M159.678,315.271h6.651v3.376h-6.651V315.271z M173.98,315.271v3.376h-6.651v-3.376H173.98z M167.329,335.082v-15.436h6.651
							v15.436H167.329z M159.678,335.082v-15.436h6.651v15.436H159.678z"/>
					</g>
					<g>
						<rect x="131.394" y="353.404" style="fill:#72BFED;" width="15.302" height="25.188"/>
						<rect x="128.518" y="378.592" style="fill:#3C3D63;" width="21.053" height="2.875"/>
						<path style="fill:#FFFFFF;" d="M130.894,352.904v25.688h1v-3.876h6.651v3.876h1v-3.876h6.651v3.876h1v-25.688H130.894z
							 M146.196,357.28h-6.651v-3.376h6.651V357.28z M138.545,353.904v3.376h-6.651v-3.376H138.545z M131.894,373.716V358.28h6.651
							v15.436H131.894z M139.545,373.716V358.28h6.651v15.436H139.545z"/>
					</g>
					<g>
						<rect x="103.609" y="353.404" style="fill:#72BFED;" width="15.302" height="25.188"/>
						<rect x="100.734" y="378.592" style="fill:#3C3D63;" width="21.053" height="2.875"/>
						<path style="fill:#FFFFFF;" d="M103.109,352.904v25.688h1v-3.876h6.651v3.876h1v-3.876h6.651v3.876h1v-25.688H103.109z
							 M118.412,357.28h-6.651v-3.376h6.651V357.28z M110.761,353.904v3.376h-6.651v-3.376H110.761z M104.109,373.716V358.28h6.651
							v15.436H104.109z M111.761,373.716V358.28h6.651v15.436H111.761z"/>
					</g>
					<g>
						
							<rect x="159.178" y="353.404" transform="matrix(-1 -1.224647e-16 1.224647e-16 -1 333.6582 731.9962)" style="fill:#72BFED;" width="15.302" height="25.188"/>
						
							<rect x="156.302" y="378.592" transform="matrix(-1 -1.224647e-16 1.224647e-16 -1 333.6582 760.0597)" style="fill:#3C3D63;" width="21.053" height="2.875"/>
						<path style="fill:#FFFFFF;" d="M158.678,352.904v25.688h1v-3.876h6.651v3.876h1v-3.876h6.651v3.876h1v-25.688H158.678z
							 M159.678,353.904h6.651v3.376h-6.651V353.904z M173.98,353.904v3.376h-6.651v-3.376H173.98z M167.329,373.716V358.28h6.651
							v15.436H167.329z M159.678,373.716V358.28h6.651v15.436H159.678z"/>
						<polygon style="fill:#EDEDED;" points="173.788,353.904 173.98,353.904 173.98,354.024 174.98,354.647 174.98,352.904 
							172.183,352.904 						"/>
					</g>
					<g>
						<rect x="103.609" y="392.038" style="fill:#72BFED;" width="15.302" height="25.188"/>
						<rect x="100.734" y="417.226" style="fill:#3C3D63;" width="21.053" height="2.876"/>
						<path style="fill:#FFFFFF;" d="M103.109,391.538v25.688h1v-3.876h6.651v3.876h1v-3.876h6.651v3.876h1v-25.688H103.109z
							 M118.412,395.914h-6.651v-3.376h6.651V395.914z M110.761,392.538v3.376h-6.651v-3.376H110.761z M104.109,412.349v-15.435
							h6.651v15.435H104.109z M111.761,412.349v-15.435h6.651v15.435H111.761z"/>
					</g>
					<g>
						
							<rect x="159.178" y="392.038" transform="matrix(-1 -1.224647e-16 1.224647e-16 -1 333.6582 809.2635)" style="fill:#72BFED;" width="15.302" height="25.188"/>
						
							<rect x="156.302" y="417.226" transform="matrix(-1 -1.224647e-16 1.224647e-16 -1 333.6582 837.327)" style="fill:#3C3D63;" width="21.053" height="2.876"/>
						<path style="fill:#FFFFFF;" d="M158.678,391.538v25.688h1v-3.876h6.651v3.876h1v-3.876h6.651v3.876h1v-25.688H158.678z
							 M159.678,392.538h6.651v3.376h-6.651V392.538z M173.98,392.538v3.376h-6.651v-3.376H173.98z M167.329,412.349v-15.435h6.651
							v15.435H167.329z M159.678,412.349v-15.435h6.651v15.435H159.678z"/>
						<polygon style="fill:#EDEDED;" points="173.788,392.538 173.98,392.538 173.98,392.658 174.98,393.28 174.98,391.538 
							172.183,391.538 						"/>
					</g>
					<rect x="87.928" y="204.449" style="fill:#3C3D63;" width="102.233" height="7.49"/>
					<g>
						<rect x="129.304" y="389.948" style="fill:#3C3D63;" width="19.481" height="40.723"/>
						<rect x="131.394" y="392.038" style="fill:#72BFED;" width="15.302" height="38.634"/>
						<polygon style="fill:#FFFFFF;" points="146.696,395.914 139.545,395.914 139.545,392.038 138.545,392.038 138.545,395.914 
							131.394,395.914 131.394,396.914 138.545,396.914 138.545,430.671 139.545,430.671 139.545,396.914 146.696,396.914 						"/>
					</g>
					<rect x="94.003" y="299.776" style="fill:#3C3D63;" width="90.084" height="4.424"/>
				</g>
				<g>
					<rect x="91.137" y="393.489" style="fill:#3C5AEF;" width="49.764" height="37.183"/>
					<polygon style="fill:#304CD8;" points="91.137,393.489 140.901,416.305 140.901,393.489 					"/>
					<polygon style="fill:#34264F;" points="51.683,393.489 145.43,393.489 139.062,372.855 58.05,372.855 					"/>
					<g>
						<rect x="51.683" y="392.638" style="fill:#D2DCFF;" width="93.746" height="1.702"/>
					</g>
					<polygon style="fill:#5471FC;" points="91.137,430.671 56.211,430.671 56.211,392.855 73.674,369.548 91.137,392.855 					"/>
					<polygon style="fill:#465CF9;" points="63.683,381.464 91.137,391.436 73.674,368.129 					"/>
					<g>
						<polygon style="fill:#D2DCFF;" points="93.147,396.957 73.674,370.967 54.201,396.957 52.839,395.936 73.674,368.129 
							94.509,395.936 						"/>
					</g>
					<g>
						<path style="fill:#72BFED;" d="M107.157,423.488h-4.71c-2.11,0-3.82-1.71-3.82-3.82v-15.176c0-2.11,1.71-3.82,3.82-3.82h4.71
							c2.11,0,3.82,1.71,3.82,3.82v15.176C110.978,421.778,109.267,423.488,107.157,423.488z"/>
						<path style="fill:#58AFDB;" d="M110.233,402.244c-0.695-0.949-1.809-1.572-3.075-1.572h-0.353L110.233,402.244z"/>
						<path style="fill:#FEFEFE;" d="M107.157,400.353h-4.711c-2.282,0-4.139,1.857-4.139,4.139v15.176
							c0,2.283,1.856,4.139,4.139,4.139h4.711c2.282,0,4.139-1.856,4.139-4.139v-15.176
							C111.296,402.21,109.439,400.353,107.157,400.353z M110.627,404.174h-5.507v-3.183h2.037
							C108.979,400.991,110.463,402.394,110.627,404.174z M105.12,419.35v-14.538h5.539v14.538H105.12z M104.484,404.811v14.538
							h-5.539v-14.538H104.484z M102.447,400.991h2.037v3.183h-5.507C99.141,402.394,100.625,400.991,102.447,400.991z
							 M98.977,419.987h5.507v3.183h-2.037C100.625,423.17,99.141,421.767,98.977,419.987z M107.157,423.17h-2.037v-3.183h5.507
							C110.463,421.767,108.979,423.17,107.157,423.17z"/>
						<path style="fill:#EDEDED;" d="M107.157,400.353h-1.048l1.48,0.679c0.736,0.093,1.404,0.402,1.922,0.881l1.24,0.569
							C110.043,401.219,108.706,400.353,107.157,400.353z"/>
					</g>
					<g>
						<path style="fill:#72BFED;" d="M124.882,423.488h4.711c2.11,0,3.82-1.71,3.82-3.82v-15.176c0-2.11-1.71-3.82-3.82-3.82h-4.711
							c-2.11,0-3.82,1.71-3.82,3.82v15.176C121.061,421.778,122.772,423.488,124.882,423.488z"/>
						<path style="fill:#58AFDB;" d="M129.592,400.672h-4.71c-2.11,0-3.82,1.71-3.82,3.82v2.717l12.351,5.663v-8.38
							C133.413,402.382,131.702,400.672,129.592,400.672z"/>
						<path style="fill:#FEFEFE;" d="M129.592,400.353h-4.711c-2.282,0-4.139,1.857-4.139,4.139v15.176
							c0,2.283,1.857,4.139,4.139,4.139h4.711c2.282,0,4.139-1.856,4.139-4.139v-15.176
							C133.731,402.21,131.874,400.353,129.592,400.353z M133.062,404.174h-5.507v-3.183h2.037
							C131.414,400.991,132.898,402.394,133.062,404.174z M127.555,419.35v-14.538h5.539v14.538H127.555z M126.919,404.811v14.538
							h-5.539v-14.538H126.919z M124.882,400.991h2.037v3.183h-5.507C121.576,402.394,123.06,400.991,124.882,400.991z
							 M121.412,419.987h5.507v3.183h-2.037C123.06,423.17,121.576,421.767,121.412,419.987z M129.592,423.17h-2.037v-3.183h5.507
							C132.898,421.767,131.414,423.17,129.592,423.17z"/>
						<path style="fill:#EDEDED;" d="M129.592,400.353h-4.711c-2.282,0-4.139,1.857-4.139,4.139v2.57l0.636,0.292v-2.544h5.539
							v5.083l0.636,0.292v-5.375h5.539v7.915l0.636,0.292v-8.525C133.731,402.21,131.874,400.353,129.592,400.353z M126.919,404.174
							h-5.507c0.164-1.78,1.648-3.183,3.47-3.183h2.037V404.174z M127.555,404.174v-3.183h2.037c1.822,0,3.306,1.403,3.47,3.183
							H127.555z"/>
					</g>
					<g>
						<path style="fill:#72BFED;" d="M81.042,430.671H66.505V405.76c0-2.11,1.71-3.82,3.82-3.82h6.896c2.11,0,3.82,1.711,3.82,3.82
							V430.671z"/>
						<path style="fill:#FEFEFE;" d="M77.221,401.621h-6.896c-2.282,0-4.139,1.857-4.139,4.139v24.911h0.636v-24.593h13.901v24.593
							h0.637V405.76C81.36,403.477,79.503,401.621,77.221,401.621z M80.691,405.441h-6.6v-3.183h3.13
							C79.043,402.258,80.527,403.661,80.691,405.441z M70.325,402.258h3.13v3.183h-6.6
							C67.019,403.661,68.503,402.258,70.325,402.258z"/>
					</g>
					<g>
						<path style="fill:#72BFED;" d="M79.731,388.63c0,3.345-2.712,6.057-6.057,6.057c-3.345,0-6.057-2.712-6.057-6.057
							c0-3.345,2.712-6.057,6.057-6.057C77.02,382.573,79.731,385.285,79.731,388.63z"/>
						<path style="fill:#58AFDB;" d="M79.563,387.232c-0.632-2.67-3.025-4.659-5.888-4.659c-1.358,0-2.607,0.452-3.617,1.207
							L79.563,387.232z"/>
						<path style="fill:#FEFEFE;" d="M73.674,382.254c-3.515,0-6.375,2.86-6.375,6.376c0,3.515,2.859,6.375,6.375,6.375
							c3.515,0,6.375-2.86,6.375-6.375C80.049,385.114,77.189,382.254,73.674,382.254z M79.397,388.311h-5.404v-5.404
							C76.902,383.068,79.236,385.401,79.397,388.311z M73.356,382.907v5.404h-5.404C68.113,385.401,70.446,383.068,73.356,382.907z
							 M73.674,394.368c-3.057,0-5.555-2.404-5.722-5.419h11.445C79.23,391.964,76.731,394.368,73.674,394.368z"/>
						<path style="fill:#EDEDED;" d="M73.674,382.254c-1.501,0-2.881,0.525-3.971,1.397l0.72,0.262
							c0.842-0.582,1.847-0.945,2.933-1.005v2.07l0.636,0.231v-2.301c2.491,0.138,4.555,1.869,5.2,4.19l0.73,0.265
							C79.333,384.452,76.756,382.254,73.674,382.254z"/>
					</g>
				</g>
				<g>
					<rect x="356.008" y="366.457" style="fill:#ED8324;" width="30.78" height="65.224"/>
					<rect x="421.439" y="366.457" style="fill:#ED8324;" width="30.78" height="65.224"/>
					<polygon style="fill:#DD7219;" points="421.439,366.457 452.219,392.109 452.219,366.457 					"/>
					<polygon style="fill:#DD7219;" points="356.008,366.457 386.788,392.109 386.788,366.457 					"/>
					<polygon style="fill:#41485A;" points="448.587,343.452 359.641,343.452 352.641,366.457 455.587,366.457 					"/>
					<g>
						<rect x="352.641" y="365.814" style="fill:#FFE8A6;" width="102.946" height="1.287"/>
					</g>
					<polygon style="fill:#FFA14D;" points="421.67,366.236 404.229,341.553 386.788,366.236 386.788,431.681 421.67,431.681 					
						"/>
					<polygon style="fill:#ED8324;" points="395.545,353.843 421.67,375.616 421.67,371.914 421.67,366.236 404.229,341.553 					
						"/>
					<g>
						<polygon style="fill:#FFE8A6;" points="424.097,370.784 404.228,342.668 384.361,370.784 383.31,370.042 404.228,340.438 
							425.147,370.042 						"/>
					</g>
					<g>
						<g>
							<path style="fill:#72BFED;" d="M371.398,396.116L371.398,396.116c2.678,0,4.849-2.171,4.849-4.849v-8.218
								c0-2.678-2.171-4.849-4.849-4.849l0,0c-2.678,0-4.85,2.171-4.85,4.849v8.218C366.548,393.944,368.72,396.116,371.398,396.116
								z"/>
							<path style="fill:#58AFDB;" d="M371.398,378.199L371.398,378.199c-0.39,0-0.764,0.058-1.127,0.145l5.977,4.981v-0.277
								C376.248,380.37,374.076,378.199,371.398,378.199z"/>
							<path style="fill:#FEFEFE;" d="M371.398,377.823c-2.881,0-5.225,2.344-5.225,5.225v8.218c0,2.881,2.344,5.225,5.225,5.225
								c2.88,0,5.224-2.344,5.224-5.225v-8.218C376.622,380.167,374.278,377.823,371.398,377.823z M375.834,382.673h-4.061v-4.062
								C373.937,378.795,375.651,380.509,375.834,382.673z M366.924,390.891v-7.468h8.948v7.468H366.924z M371.023,378.611v4.062
								h-4.062C367.145,380.509,368.859,378.795,371.023,378.611z M366.962,391.641h4.062v4.062
								C368.859,395.519,367.145,393.805,366.962,391.641z M371.773,395.702v-4.062h4.061
								C375.651,393.805,373.937,395.519,371.773,395.702z"/>
							<path style="fill:#EDEDED;" d="M371.398,377.823c-0.513,0-1,0.097-1.469,0.236l0.737,0.614
								c0.119-0.02,0.234-0.052,0.356-0.063v0.36l0.75,0.625v-0.985c2.163,0.183,3.877,1.897,4.061,4.062h-0.369l1.157,0.964v-0.589
								C376.622,380.167,374.278,377.823,371.398,377.823z"/>
						</g>
						<g>
							<path style="fill:#72BFED;" d="M371.398,423.745L371.398,423.745c2.678,0,4.849-2.171,4.849-4.85v-8.218
								c0-2.678-2.171-4.849-4.849-4.849l0,0c-2.678,0-4.85,2.171-4.85,4.849v8.218C366.548,421.574,368.72,423.745,371.398,423.745
								z"/>
							<path style="fill:#FEFEFE;" d="M371.398,405.453c-2.881,0-5.225,2.344-5.225,5.224v8.219c0,2.881,2.344,5.225,5.225,5.225
								c2.88,0,5.224-2.344,5.224-5.225v-8.219C376.622,407.797,374.278,405.453,371.398,405.453z M375.834,410.302h-4.061v-4.061
								C373.937,406.424,375.651,408.139,375.834,410.302z M366.924,418.521v-7.469h8.948v7.469H366.924z M371.023,406.241v4.061
								h-4.062C367.145,408.138,368.859,406.424,371.023,406.241z M366.962,419.271h4.062v4.062
								C368.859,423.149,367.145,421.435,366.962,419.271z M371.773,423.332v-4.062h4.061
								C375.651,421.435,373.937,423.149,371.773,423.332z"/>
						</g>
						<g>
							<path style="fill:#72BFED;" d="M410.201,431.681h-11.945v-20.542c0-3.298,2.674-5.972,5.972-5.972l0,0
								c3.298,0,5.972,2.674,5.972,5.972V431.681z"/>
							<path style="fill:#FEFEFE;" d="M404.228,404.791c-3.5,0-6.347,2.848-6.347,6.348v20.542h0.75v-20.167h11.194v20.167h0.75
								v-20.542C410.576,407.639,407.728,404.791,404.228,404.791z M404.603,405.56c1.261,0.084,2.407,0.585,3.303,1.369
								l-3.303,3.303V405.56z M403.853,410.233l-3.303-3.303c0.896-0.784,2.042-1.286,3.303-1.37V410.233z M403.322,410.764h-4.672
								c0.084-1.261,0.585-2.406,1.369-3.303L403.322,410.764z M408.438,407.461c0.784,0.896,1.285,2.042,1.369,3.303h-4.672
								L408.438,407.461z"/>
						</g>
						<g>
							<path style="fill:#72BFED;" d="M404.229,396.116L404.229,396.116c2.678,0,4.85-2.171,4.85-4.849v-8.218
								c0-2.678-2.171-4.849-4.85-4.849l0,0c-2.678,0-4.849,2.171-4.849,4.849v8.218
								C399.379,393.944,401.551,396.116,404.229,396.116z"/>
							<path style="fill:#FEFEFE;" d="M404.228,377.823c-2.881,0-5.225,2.344-5.225,5.225v8.218c0,2.881,2.344,5.225,5.225,5.225
								c2.881,0,5.225-2.344,5.225-5.225v-8.218C409.453,380.167,407.109,377.823,404.228,377.823z M408.665,382.673h-4.062v-4.062
								C406.768,378.795,408.482,380.509,408.665,382.673z M399.754,390.891v-7.468h8.949v7.468H399.754z M403.853,378.611v4.062
								h-4.062C399.975,380.509,401.689,378.795,403.853,378.611z M399.792,391.641h4.062v4.062
								C401.689,395.519,399.975,393.805,399.792,391.641z M404.603,395.702v-4.062h4.062
								C408.482,393.805,406.768,395.519,404.603,395.702z"/>
						</g>
						<g>
							<path style="fill:#72BFED;" d="M436.829,396.116L436.829,396.116c2.678,0,4.85-2.171,4.85-4.849v-8.218
								c0-2.678-2.171-4.849-4.85-4.849l0,0c-2.678,0-4.849,2.171-4.849,4.849v8.218
								C431.98,393.944,434.151,396.116,436.829,396.116z"/>
							<path style="fill:#58AFDB;" d="M436.829,378.199c-0.39,0-0.764,0.058-1.127,0.145l5.977,4.981v-0.277
								C441.679,380.37,439.508,378.199,436.829,378.199z"/>
							<path style="fill:#FEFEFE;" d="M436.829,377.823c-2.881,0-5.225,2.344-5.225,5.225v8.218c0,2.881,2.344,5.225,5.225,5.225
								c2.881,0,5.225-2.344,5.225-5.225v-8.218C442.054,380.167,439.71,377.823,436.829,377.823z M441.266,382.673h-4.062v-4.062
								C439.368,378.795,441.082,380.509,441.266,382.673z M432.354,390.891v-7.468h8.949v7.468H432.354z M436.454,378.611v4.062
								h-4.062C432.576,380.509,434.29,378.795,436.454,378.611z M432.392,391.641h4.062v4.062
								C434.29,395.519,432.576,393.805,432.392,391.641z M437.204,395.702v-4.062h4.062
								C441.082,393.805,439.368,395.519,437.204,395.702z"/>
							<path style="fill:#EDEDED;" d="M436.829,377.823c-0.513,0-0.999,0.097-1.468,0.236l0.737,0.615
								c0.119-0.02,0.234-0.052,0.356-0.063v0.359l0.75,0.625v-0.984c2.164,0.183,3.878,1.897,4.062,4.062h-0.369l1.157,0.964
								v-0.589C442.054,380.167,439.71,377.823,436.829,377.823z"/>
						</g>
						<g>
							<path style="fill:#72BFED;" d="M436.829,423.745L436.829,423.745c2.678,0,4.85-2.171,4.85-4.85v-8.218
								c0-2.678-2.171-4.849-4.85-4.849l0,0c-2.678,0-4.849,2.171-4.849,4.849v8.218
								C431.98,421.574,434.151,423.745,436.829,423.745z"/>
							<path style="fill:#FEFEFE;" d="M436.829,405.453c-2.881,0-5.225,2.344-5.225,5.224v8.219c0,2.881,2.344,5.225,5.225,5.225
								c2.881,0,5.225-2.344,5.225-5.225v-8.219C442.054,407.797,439.71,405.453,436.829,405.453z M441.266,410.302h-4.062v-4.061
								C439.368,406.424,441.082,408.138,441.266,410.302z M432.354,418.521v-7.469h8.949v7.469H432.354z M436.454,406.241v4.061
								h-4.062C432.576,408.138,434.29,406.424,436.454,406.241z M432.392,419.271h4.062v4.062
								C434.29,423.149,432.576,421.435,432.392,419.271z M437.204,423.332v-4.062h4.062
								C441.082,421.435,439.368,423.149,437.204,423.332z"/>
						</g>
						<g>
							<path style="fill:#72BFED;" d="M410.201,362.846c0,3.298-2.674,5.972-5.972,5.972c-3.298,0-5.972-2.674-5.972-5.972
								c0-3.298,2.674-5.972,5.972-5.972C407.527,356.874,410.201,359.548,410.201,362.846z"/>
							<path style="fill:#58AFDB;" d="M404.229,356.874c-1.351,0-2.594,0.454-3.594,1.211l8.927,7.44
								c0.406-0.806,0.64-1.714,0.64-2.678C410.201,359.548,407.527,356.874,404.229,356.874z"/>
							<path style="fill:#FEFEFE;" d="M404.228,356.499c-3.5,0-6.347,2.848-6.347,6.348s2.847,6.347,6.347,6.347
								s6.348-2.847,6.348-6.347S407.728,356.499,404.228,356.499z M409.807,362.472h-5.204v-5.204
								C407.391,357.454,409.621,359.684,409.807,362.472z M403.853,357.268v5.204h-5.203
								C398.837,359.684,401.067,357.454,403.853,357.268z M398.651,363.222h5.203v5.203
								C401.067,368.238,398.837,366.008,398.651,363.222z M404.603,368.424v-5.203h5.204
								C409.621,366.008,407.391,368.238,404.603,368.424z"/>
							<path style="fill:#EDEDED;" d="M404.228,356.499c-1.465,0-2.812,0.504-3.887,1.341l0.598,0.499
								c0.83-0.607,1.826-0.998,2.914-1.071v3.499l0.75,0.625v-4.125c2.787,0.186,5.018,2.416,5.204,5.204h-3.909l0.9,0.75h3.009
								c-0.049,0.732-0.246,1.421-0.55,2.049l0.599,0.499c0.457-0.876,0.72-1.869,0.72-2.924
								C410.576,359.347,407.728,356.499,404.228,356.499z"/>
						</g>
					</g>
				</g>
			</g>
			<g>
				<g>
					<g>
						<path style="fill:#85BCFF;" d="M186.626,120.279c-6.753,0-12.247,5.494-12.247,12.247v281.91
							c0,6.753,5.494,12.247,12.247,12.247h126.748c6.753,0,12.247-5.494,12.247-12.247v-281.91c0-6.753-5.494-12.247-12.247-12.247
							H186.626z"/>
					</g>
					<path style="fill:#6EB1F4;" d="M313.374,120.279H186.626c-6.753,0-12.247,5.494-12.247,12.247v1.542l151.241,119.851V132.526
						C325.621,125.773,320.127,120.279,313.374,120.279z"/>
					<g>
						<path style="fill:#A6D3FF;" d="M229.35,175.25h-54.97v-44.02c0-7.18,5.82-13,13-13h41.97V175.25z"/>
						<rect x="253.231" y="146.572" style="fill:#95C9F4;" width="48.261" height="28.677"/>
						<rect x="253.231" y="199.448" style="fill:#A6D3FF;" width="40.767" height="62.195"/>
						<rect x="253.231" y="265.306" style="fill:#A6D3FF;" width="40.767" height="34.471"/>
						<rect x="253.231" y="323.913" style="fill:#A6D3FF;" width="20.383" height="42.645"/>
						<rect x="253.231" y="370.363" style="fill:#A6D3FF;" width="20.383" height="20.383"/>
						<rect x="277.564" y="323.913" style="fill:#A6D3FF;" width="48.848" height="22.256"/>
						<rect x="277.564" y="350.264" style="fill:#A6D3FF;" width="16.434" height="40.393"/>
						<rect x="297.948" y="350.264" style="fill:#A6D3FF;" width="28.865" height="40.393"/>
						<rect x="297.948" y="199.448" style="fill:#95C9F4;" width="28.676" height="26.937"/>
						<rect x="297.948" y="230.335" style="fill:#A6D3FF;" width="28.676" height="48.264"/>
						<rect x="297.948" y="282.541" style="fill:#A6D3FF;" width="28.676" height="17.235"/>
						<rect x="305.442" y="146.572" style="fill:#95C9F4;" width="21.076" height="28.677"/>
						<rect x="253.231" y="118.229" style="fill:#95C9F4;" width="37.084" height="24.299"/>
						<path style="fill:#95C9F4;" d="M326.624,144.503h-32.626v-26.274h21.427c6.185,0,11.199,5.014,11.199,11.199V144.503z"/>
						<rect x="174.379" y="199.448" style="fill:#A6D3FF;" width="54.97" height="23.74"/>
						<rect x="194.546" y="301.703" style="fill:#A6D3FF;" width="34.804" height="23.74"/>
						<rect x="173.582" y="329.339" style="fill:#A6D3FF;" width="55.768" height="33.66"/>
						<rect x="191.577" y="366.948" style="fill:#A6D3FF;" width="37.773" height="12.545"/>
						<rect x="173.582" y="366.948" style="fill:#A6D3FF;" width="14.046" height="12.545"/>
						<rect x="173.582" y="301.703" style="fill:#A6D3FF;" width="17.015" height="23.74"/>
						<rect x="201.865" y="227.293" style="fill:#A6D3FF;" width="27.485" height="50.212"/>
						<rect x="174.379" y="227.293" style="fill:#A6D3FF;" width="23.38" height="50.212"/>
						<rect x="241.132" y="308.466" style="fill:#A6D3FF;" width="85.492" height="7.135"/>
						<rect x="172.861" y="286.037" style="fill:#A6D3FF;" width="68.271" height="7.135"/>
						<rect x="172.861" y="388.026" style="fill:#A6D3FF;" width="68.271" height="7.135"/>
						<rect x="241.132" y="399.37" style="fill:#A6D3FF;" width="85.681" height="7.135"/>
						<polygon style="fill:#A6D3FF;" points="326.624,183.782 244.699,183.782 244.699,118.229 237.565,118.229 237.565,183.782 
							174.379,183.782 174.379,190.916 237.565,190.916 237.565,426.683 244.699,426.683 244.699,190.916 326.624,190.916 						"/>
						<rect x="205.303" y="403.692" style="fill:#A6D3FF;" width="23.73" height="23.73"/>
						<path style="fill:#A6D3FF;" d="M182.861,427.422h18.604v-23.73h-28.604v13.73
							C172.861,422.945,177.338,427.422,182.861,427.422z"/>
						<rect x="253.231" y="415.036" style="fill:#A6D3FF;" width="43.282" height="12.386"/>
						<path style="fill:#A6D3FF;" d="M314.427,427.422h-13.964v-12.386h26.35l0,0C326.813,421.877,321.267,427.422,314.427,427.422z
							"/>
						<path style="fill:#95C9F4;" d="M229.35,175.25v-54.97h-42.724c-6.753,0-12.247,5.494-12.247,12.247v1.542l51.967,41.181
							H229.35z"/>
						<polygon style="fill:#95C9F4;" points="246.116,190.916 325.621,190.916 325.621,183.782 244.699,183.782 244.699,120.279 
							237.565,120.279 237.565,183.782 237.113,183.782 						"/>
						<polygon style="fill:#95C9F4;" points="293.998,228.86 293.998,199.448 256.883,199.448 						"/>
						<polygon style="fill:#95C9F4;" points="297.948,231.99 325.621,253.919 325.621,230.335 297.948,230.335 						"/>
					</g>
					<g>
						<path style="fill:#3E66B5;" d="M313.374,115.826H186.626c-9.209,0-16.7,7.492-16.7,16.7v281.91c0,9.209,7.491,16.7,16.7,16.7
							h126.748c9.209,0,16.7-7.491,16.7-16.7v-281.91C330.074,123.318,322.583,115.826,313.374,115.826z M325.621,414.436
							c0,6.753-5.494,12.247-12.247,12.247H186.626c-6.753,0-12.247-5.494-12.247-12.247v-281.91
							c0-6.753,5.494-12.247,12.247-12.247h16.793c0,6.963,5.644,12.607,12.607,12.607h67.947c6.963,0,12.607-5.644,12.607-12.607
							h16.793c6.753,0,12.247,5.494,12.247,12.247V414.436z"/>
					</g>
					<path style="fill:#275296;" d="M313.374,115.826H186.626c-8.567,0-15.64,6.487-16.585,14.805l4.338,3.438v-1.542
						c0-6.753,5.494-12.247,12.247-12.247h16.793c0,6.963,5.644,12.607,12.607,12.607h67.947c6.963,0,12.607-5.644,12.607-12.607
						h16.793c6.753,0,12.247,5.494,12.247,12.247v121.393l4.453,3.529V132.526C330.074,123.318,322.583,115.826,313.374,115.826z"/>
				</g>
				<g>
					<g>
						<g style="opacity:0.25;">
							<path style="fill:#FFFFFF;" d="M285.781,394.796c-36.093,0-65.457-29.363-65.457-65.457s29.364-65.457,65.457-65.457
								s65.457,29.363,65.457,65.457S321.875,394.796,285.781,394.796z"/>
						</g>
						<g>
							
								<rect x="350.476" y="373.017" transform="matrix(0.7986 -0.6019 0.6019 0.7986 -181.0878 297.1945)" style="fill:#FFD550;" width="6" height="92.264"/>
						</g>
						<g>
							<path style="fill:#3C5AEF;" d="M381.25,464.989c-2.729,0-5.425-1.236-7.194-3.584l-32.154-42.659
								c-2.991-3.969-2.199-9.612,1.771-12.604c3.97-2.99,9.612-2.199,12.604,1.771l32.154,42.659
								c2.991,3.969,2.199,9.612-1.771,12.604C385.038,464.398,383.136,464.989,381.25,464.989z"/>
						</g>
						<g>
							<path style="fill:#242E4F;" d="M285.781,400.671c-39.333,0-71.333-31.999-71.333-71.332s31.999-71.332,71.333-71.332
								c39.333,0,71.332,31.999,71.332,71.332S325.114,400.671,285.781,400.671z M285.781,268.007
								c-33.819,0-61.333,27.514-61.333,61.332c0,33.818,27.513,61.332,61.333,61.332c33.818,0,61.332-27.514,61.332-61.332
								C347.113,295.521,319.6,268.007,285.781,268.007z"/>
						</g>
						<g>
							<path style="fill:#FFFFFF;" d="M236.336,315.199c-0.205,0-0.415-0.032-0.621-0.1c-1.05-0.343-1.624-1.472-1.281-2.522
								c4.579-14.036,14.872-25.721,28.241-32.059c0.997-0.472,2.189-0.048,2.664,0.951c0.473,0.998,0.047,2.19-0.951,2.664
								c-12.38,5.868-21.912,16.688-26.151,29.684C237.961,314.662,237.178,315.199,236.336,315.199z"/>
						</g>
						<g>
							<path style="fill:#DD4E58;" d="M315.218,317.826c0-16.947-14.32-30.548-31.52-29.365
								c-14.745,1.015-26.594,13.122-27.317,27.884c-0.276,5.638,1.035,10.95,3.525,15.527h0l22.757,41.626
								c1.027,1.879,3.714,1.914,4.789,0.062l23.432-40.356C313.631,328.728,315.218,323.463,315.218,317.826z"/>
							
								<ellipse transform="matrix(0.2276 -0.9738 0.9738 0.2276 -88.7451 523.7745)" style="fill:#FFD550;" cx="285.781" cy="317.826" rx="22.199" ry="22.199"/>
						</g>
						<polygon style="fill:#DD4E58;" points="285.781,300.307 273.69,310.311 277.544,310.311 277.544,323.129 283.148,323.129 
							283.148,314.574 288.414,314.574 288.414,323.129 294.019,323.129 294.019,310.311 297.872,310.311 						"/>
						<g>
							<polygon style="fill:#DD4E58;" points="297.309,325.556 297.888,327.339 299.762,327.339 298.246,328.44 298.825,330.223 
								297.309,329.121 295.792,330.223 296.371,328.44 294.855,327.339 296.729,327.339 							"/>
							<polygon style="fill:#962435;" points="291.545,325.556 292.124,327.339 293.998,327.339 292.482,328.44 293.061,330.223 
								291.545,329.121 290.029,330.223 290.608,328.44 289.091,327.339 290.966,327.339 							"/>
							<polygon style="fill:#962435;" points="285.781,325.556 286.36,327.339 288.235,327.339 286.718,328.44 287.297,330.223 
								285.781,329.121 284.265,330.223 284.844,328.44 283.328,327.339 285.202,327.339 							"/>
							<polygon style="fill:#962435;" points="280.017,325.556 280.597,327.339 282.471,327.339 280.955,328.44 281.534,330.223 
								280.017,329.121 278.501,330.223 279.08,328.44 277.564,327.339 279.438,327.339 							"/>
							<polygon style="fill:#962435;" points="274.254,325.556 274.833,327.339 276.707,327.339 275.191,328.44 275.77,330.223 
								274.254,329.121 272.738,330.223 273.317,328.44 271.801,327.339 273.675,327.339 							"/>
						</g>
						<path style="fill:#254ACE;" d="M379.206,438.334l-22.93-30.421c-2.992-3.97-8.635-4.761-12.604-1.771
							c-1.495,1.127-2.539,2.63-3.1,4.278L379.206,438.334z"/>
					</g>
					<g>
						<g>
							<g>
								<path style="fill:#DD4E58;" d="M199.126,255.336c0-4.346-3.673-7.834-8.083-7.531c-3.781,0.26-6.82,3.365-7.006,7.151
									c-0.071,1.446,0.266,2.808,0.904,3.982h0l5.836,10.675c0.264,0.482,0.952,0.491,1.228,0.016l6.009-10.35
									C198.719,258.131,199.126,256.781,199.126,255.336z"/>
								<circle style="fill:#FFD550;" cx="191.577" cy="255.336" r="5.693"/>
							</g>
							<polygon style="fill:#DD4E58;" points="191.577,251.856 188.476,254.421 189.464,254.421 189.464,257.709 190.901,257.709 
								190.901,255.515 192.252,255.515 192.252,257.709 193.689,257.709 193.689,254.421 194.677,254.421 							"/>
						</g>
						<g>
							<path style="fill:#DD4E58;" d="M290.02,222.479c0-4.346-3.672-7.834-8.083-7.531c-3.781,0.26-6.82,3.365-7.006,7.151
								c-0.071,1.446,0.266,2.808,0.904,3.982h0l5.836,10.675c0.264,0.482,0.953,0.491,1.228,0.016l6.009-10.35
								C289.613,225.274,290.02,223.924,290.02,222.479z"/>
							<path style="fill:#D14250;" d="M281.937,214.948c-1.401,0.096-2.699,0.585-3.788,1.352l11.323,8.973
								c0.346-0.866,0.549-1.805,0.549-2.794C290.02,218.133,286.348,214.644,281.937,214.948z"/>
							<circle style="fill:#FFD550;" cx="282.471" cy="222.479" r="5.693"/>
							<path style="fill:#F2C23B;" d="M282.471,216.786c-1.013,0-1.962,0.268-2.787,0.732l8.253,6.54
								c0.145-0.502,0.227-1.03,0.227-1.579C288.164,219.334,285.615,216.786,282.471,216.786z"/>
							<polygon style="fill:#DD4E58;" points="282.471,218.999 279.37,221.564 280.358,221.564 280.358,224.852 281.796,224.852 
								281.796,222.658 283.146,222.658 283.146,224.852 284.583,224.852 284.583,221.564 285.572,221.564 							"/>
							<polygon style="fill:#D14250;" points="282.022,219.37 284.792,221.564 285.572,221.564 282.471,218.999 							"/>
						</g>
						<g>
							<g>
								<path style="fill:#DD4E58;" d="M206.675,150.337c0-4.346-3.673-7.834-8.083-7.531c-3.781,0.26-6.82,3.365-7.005,7.151
									c-0.071,1.446,0.265,2.808,0.904,3.982h0l5.836,10.675c0.264,0.482,0.952,0.491,1.228,0.016l6.009-10.35
									C206.268,153.132,206.675,151.782,206.675,150.337z"/>
								<path style="fill:#D14250;" d="M198.591,142.806c-3.102,0.214-5.7,2.342-6.638,5.189l11.82,9.367l1.79-3.082
									c0.705-1.148,1.112-2.498,1.112-3.944C206.675,145.991,203.002,142.502,198.591,142.806z"/>
								<circle style="fill:#FFD550;" cx="199.126" cy="150.337" r="5.693"/>
								<path style="fill:#F2C23B;" d="M199.126,144.644c-2.773,0-5.08,1.983-5.587,4.608l7.918,6.275
									c1.98-0.891,3.361-2.878,3.361-5.19C204.819,147.193,202.27,144.644,199.126,144.644z"/>
								<polygon style="fill:#DD4E58;" points="199.126,147.148 196.025,149.714 197.013,149.714 197.013,153.001 198.451,153.001 
									198.451,150.807 199.801,150.807 199.801,153.001 201.238,153.001 201.238,149.714 202.227,149.714 								"/>
								<polygon style="fill:#D14250;" points="199.126,147.148 196.025,149.714 197.013,149.714 197.013,152.005 198.271,153.001 
									198.451,153.001 198.451,150.807 199.801,150.807 199.801,153.001 201.238,153.001 201.238,149.714 202.227,149.714 
																	"/>
							</g>
						</g>
						<g>
							<g>
								<path style="fill:#DD4E58;" d="M209.776,358.4c0-4.346-3.673-7.834-8.083-7.531c-3.781,0.26-6.82,3.365-7.005,7.151
									c-0.071,1.446,0.265,2.808,0.904,3.982l0,0l5.836,10.675c0.264,0.482,0.952,0.491,1.228,0.016l6.009-10.35
									C209.369,361.196,209.776,359.846,209.776,358.4z"/>
								<circle style="fill:#FFD550;" cx="202.227" cy="358.4" r="5.693"/>
							</g>
							<polygon style="fill:#DD4E58;" points="202.227,354.921 199.126,357.486 200.114,357.486 200.114,360.773 201.551,360.773 
								201.551,358.58 202.902,358.58 202.902,360.773 204.339,360.773 204.339,357.486 205.327,357.486 							"/>
						</g>
					</g>
				</g>
			</g>
		</g>
	</g>
</g>
</svg>
